<?xml version="1.0" standalone="no"?>
<!DOCTYPE svg PUBLIC "-//W3C//DTD SVG 20010904//EN"
 "http://www.w3.org/TR/2001/REC-SVG-20010904/DTD/svg10.dtd">
<svg version="1.0" xmlns="http://www.w3.org/2000/svg"
 width="50px" height="50px" viewBox="0 0 1095.000000 969.000000"
 preserveAspectRatio="xMidYMid meet">

<g transform="translate(0.000000,969.000000) scale(0.100000,-0.100000)"
fill="#aaaaaa" stroke="none">
<path d="M5230 9094 c-30 -2 -111 -11 -180 -19 -69 -8 -161 -17 -205 -20 -72
-5 -118 -13 -335 -60 -36 -8 -97 -19 -137 -25 -39 -5 -98 -21 -130 -34 -32
-13 -105 -38 -163 -56 -58 -18 -118 -41 -135 -50 -16 -10 -48 -20 -70 -23 -22
-2 -69 -21 -103 -41 -35 -20 -76 -36 -91 -36 -16 0 -46 -13 -67 -28 -21 -15
-55 -34 -74 -41 -68 -26 -105 -44 -136 -68 -17 -12 -34 -23 -37 -23 -3 0 -18
-11 -33 -25 -15 -14 -31 -25 -36 -25 -6 0 -21 -9 -35 -20 -14 -11 -33 -20 -43
-20 -9 0 -31 -13 -48 -29 -17 -16 -44 -37 -61 -46 -17 -8 -31 -19 -31 -23 0
-4 -23 -20 -52 -37 -28 -16 -72 -49 -97 -72 -25 -23 -63 -57 -83 -76 -21 -18
-53 -42 -72 -52 -19 -11 -36 -28 -38 -39 -2 -12 -11 -22 -21 -24 -10 -2 -42
-27 -70 -55 -29 -29 -71 -68 -94 -87 -24 -19 -43 -40 -43 -46 0 -12 -25 -40
-76 -86 -16 -14 -42 -42 -59 -62 -16 -20 -38 -45 -47 -56 -10 -11 -18 -23 -18
-27 0 -3 -20 -25 -45 -49 -25 -23 -45 -47 -45 -52 0 -6 -18 -30 -40 -53 -22
-24 -40 -49 -40 -56 0 -13 -23 -45 -52 -72 -10 -8 -18 -23 -18 -32 0 -10 -23
-44 -50 -77 -28 -33 -50 -67 -50 -76 0 -9 -4 -16 -9 -16 -5 0 -12 -9 -16 -19
-3 -11 -19 -34 -35 -53 -16 -18 -30 -41 -30 -51 0 -10 -9 -28 -20 -40 -12 -12
-23 -32 -26 -44 -4 -13 -9 -23 -14 -23 -9 0 -87 -156 -150 -302 -6 -13 -14
-30 -19 -38 -4 -8 -18 -46 -31 -85 -24 -73 -44 -105 -67 -105 -7 0 -13 -4 -13
-9 0 -10 -34 -24 -103 -42 -27 -6 -63 -22 -80 -34 -18 -11 -39 -24 -47 -28
-59 -27 -188 -124 -195 -148 -4 -10 -12 -19 -19 -19 -17 0 -166 -148 -166
-165 0 -7 -11 -22 -25 -33 -14 -11 -25 -25 -25 -31 0 -6 -6 -11 -14 -11 -8 0
-17 -11 -20 -25 -4 -14 -20 -40 -36 -57 -17 -17 -30 -39 -30 -48 0 -9 -9 -25
-19 -34 -11 -10 -23 -31 -26 -46 -3 -16 -13 -34 -21 -41 -8 -6 -14 -20 -14
-29 0 -10 -11 -32 -25 -48 -14 -17 -25 -35 -25 -41 0 -6 -11 -29 -25 -51 -14
-22 -25 -48 -25 -57 0 -10 -12 -40 -25 -68 -14 -27 -25 -57 -25 -65 0 -9 -7
-25 -15 -37 -8 -12 -18 -50 -22 -85 -3 -34 -17 -90 -30 -122 -13 -33 -23 -70
-23 -82 0 -12 -9 -57 -20 -100 -31 -125 -46 -461 -32 -722 12 -209 26 -302 74
-467 11 -38 24 -97 29 -130 9 -59 17 -84 65 -195 13 -30 26 -69 29 -87 4 -17
13 -37 20 -43 8 -7 31 -45 50 -86 19 -40 39 -76 44 -79 5 -3 12 -19 16 -36 4
-17 13 -33 20 -35 7 -3 16 -20 19 -38 4 -18 20 -46 36 -62 16 -16 30 -34 30
-40 0 -6 9 -19 20 -29 11 -10 20 -22 20 -26 0 -16 198 -220 269 -277 25 -20
55 -46 66 -57 22 -23 204 -115 226 -115 8 0 37 -12 64 -26 67 -35 148 -54 308
-70 l67 -7 0 2100 0 2099 25 34 c14 19 25 41 25 49 1 18 90 184 114 212 9 11
16 25 16 32 0 6 18 38 40 71 22 32 40 67 40 77 0 10 14 31 30 46 17 15 36 38
43 52 27 52 43 76 72 106 25 26 62 74 110 143 6 8 28 33 50 56 22 24 49 58 59
77 11 19 28 41 38 50 10 9 18 20 18 24 0 4 17 24 38 45 20 21 55 57 77 79 22
23 45 41 52 41 7 0 13 11 13 25 0 14 5 25 11 25 6 0 20 11 31 25 11 14 26 25
34 25 8 0 14 7 14 15 0 8 4 15 9 15 6 0 50 41 99 90 49 50 94 90 101 90 12 0
25 9 62 43 10 9 22 17 27 17 4 0 23 18 42 40 19 22 43 40 52 40 10 0 25 11 33
24 9 13 27 27 40 30 13 3 41 22 62 42 21 20 63 50 93 67 30 16 68 41 83 53 16
13 36 24 46 24 9 0 26 8 37 18 21 20 51 37 119 71 22 10 55 31 74 45 19 14 43
26 53 26 9 0 57 20 105 45 48 25 98 45 110 45 13 0 41 11 62 25 22 13 51 27
65 31 15 3 29 10 32 15 3 5 17 9 32 9 31 0 86 17 185 54 38 15 88 26 115 26
26 0 74 9 107 19 105 34 225 53 385 62 85 5 221 12 301 17 80 5 210 5 290 0
79 -4 221 -12 314 -17 94 -6 195 -17 225 -26 30 -8 66 -15 81 -15 14 0 52 -8
85 -19 32 -10 86 -21 119 -24 33 -2 80 -14 105 -25 59 -26 143 -52 170 -52 12
0 60 -18 107 -40 47 -22 92 -40 100 -40 7 0 31 -11 53 -25 22 -14 44 -25 50
-25 5 0 27 -9 47 -20 21 -11 46 -20 56 -20 10 0 35 -13 55 -29 20 -17 49 -33
65 -36 15 -4 27 -10 27 -14 0 -3 23 -19 50 -36 28 -16 50 -32 50 -36 0 -4 15
-10 33 -13 19 -3 43 -15 55 -26 12 -11 24 -20 27 -20 3 0 31 -19 62 -42 30
-24 64 -48 74 -54 10 -6 27 -18 36 -26 10 -9 23 -17 29 -19 7 -2 36 -25 65
-51 100 -87 127 -108 136 -108 12 0 155 -131 223 -204 30 -33 67 -71 83 -85
15 -14 27 -31 27 -38 0 -7 6 -13 13 -13 7 0 29 -19 48 -41 47 -57 59 -69 70
-69 5 0 9 -9 9 -19 0 -11 18 -36 40 -57 22 -21 40 -42 40 -47 0 -4 14 -22 30
-40 17 -18 33 -41 36 -52 4 -11 15 -26 25 -33 11 -7 19 -18 19 -24 0 -13 63
-99 107 -147 18 -20 36 -45 39 -56 4 -10 24 -45 45 -76 22 -31 39 -62 39 -68
0 -7 19 -40 43 -74 24 -34 49 -78 57 -97 8 -19 24 -52 37 -72 12 -20 26 -55
29 -77 4 -23 10 -41 15 -41 5 0 9 -10 9 -23 0 -13 6 -29 13 -35 9 -10 13 -453
17 -2120 l5 -2107 75 3 c91 3 194 20 237 38 17 8 34 14 38 14 3 0 13 7 21 15
9 8 28 15 43 15 16 0 34 6 40 14 7 8 27 18 44 22 18 3 44 15 59 25 14 11 32
19 40 19 8 0 24 11 36 25 12 14 28 25 36 25 8 0 16 7 20 15 3 8 10 15 16 15
13 0 31 15 73 59 18 19 66 68 108 110 42 42 79 85 83 96 3 11 26 42 51 69 25
26 45 54 45 62 0 7 6 17 13 21 7 4 23 24 35 43 26 43 132 259 132 269 0 11 32
75 40 81 6 4 42 115 87 265 8 28 21 88 29 134 8 46 17 88 20 93 3 5 10 37 15
71 4 34 16 107 25 162 25 145 25 511 0 655 -10 58 -21 130 -25 160 -4 30 -10
60 -13 66 -4 6 -12 44 -19 85 -11 76 -24 123 -64 244 -13 39 -27 87 -30 107
-4 20 -18 52 -31 70 -14 18 -32 58 -41 88 -8 30 -19 57 -23 60 -12 9 -48 84
-54 112 -4 15 -14 35 -24 45 -10 10 -40 52 -67 93 -27 41 -61 88 -77 103 -15
16 -28 35 -28 43 0 8 -6 17 -13 20 -7 2 -32 29 -56 59 -24 30 -49 55 -54 55
-10 0 -77 70 -77 81 0 7 -137 101 -175 119 -16 8 -34 21 -38 27 -4 7 -12 13
-18 13 -5 0 -29 9 -51 20 -23 11 -51 20 -63 20 -12 0 -31 9 -42 20 -12 10 -32
22 -46 25 -20 5 -28 18 -41 68 -9 34 -20 76 -25 93 -4 16 -20 54 -35 83 -14
29 -26 66 -26 81 0 16 -4 31 -9 35 -12 7 -41 64 -41 81 0 22 -57 152 -74 169
-9 9 -16 24 -16 33 0 9 -9 28 -20 42 -11 14 -20 30 -20 36 0 6 -7 17 -16 25
-18 15 -74 122 -74 142 0 8 -11 27 -25 43 -14 16 -25 34 -25 39 0 6 -11 22
-25 37 -14 15 -25 31 -25 36 0 4 -13 21 -30 37 -16 16 -30 35 -30 42 0 20 -43
83 -57 83 -6 0 -14 9 -18 20 -3 11 -18 32 -33 48 -61 64 -155 177 -165 199 -5
12 -17 25 -26 28 -24 8 -121 99 -121 113 0 7 -20 27 -45 44 -25 18 -45 35 -45
40 0 4 -14 15 -31 24 -18 9 -49 32 -69 52 -74 72 -120 112 -129 112 -5 0 -40
25 -76 55 -37 30 -73 55 -79 55 -6 0 -26 13 -43 29 -18 16 -46 32 -63 36 -16
4 -30 11 -30 15 0 5 -16 16 -35 25 -19 9 -39 23 -46 31 -6 8 -18 14 -27 14 -9
0 -25 9 -36 19 -28 25 -93 61 -111 61 -9 0 -23 4 -33 9 -9 5 -24 12 -32 15 -8
4 -33 17 -55 31 -22 13 -51 24 -65 25 -14 0 -40 9 -58 20 -18 11 -37 20 -43
20 -6 0 -23 8 -37 19 -15 10 -47 20 -72 23 -25 3 -65 14 -90 26 -57 26 -98 39
-185 62 -38 10 -101 30 -138 44 -37 14 -84 26 -103 26 -20 0 -82 9 -137 20
-250 49 -320 60 -447 70 -74 6 -171 15 -215 20 -89 10 -509 20 -595 14z"/>
<path d="M6793 6373 l-883 -3 0 -1495 0 -1495 930 0 930 0 0 -429 0 -428 -59
-36 c-32 -20 -64 -43 -71 -52 -7 -8 -21 -15 -30 -15 -10 0 -20 -4 -22 -8 -1
-4 -41 -26 -88 -49 -47 -23 -95 -51 -107 -62 -12 -12 -44 -33 -70 -47 -26 -15
-57 -35 -68 -45 -11 -10 -31 -23 -45 -29 -14 -6 -45 -24 -70 -40 -25 -16 -68
-42 -95 -58 -28 -16 -57 -37 -64 -46 -7 -9 -21 -16 -31 -16 -9 0 -29 -9 -43
-20 -14 -11 -29 -20 -34 -20 -5 0 -20 -11 -33 -25 -13 -14 -31 -25 -39 -25 -9
0 -22 -9 -28 -19 -11 -18 -126 -81 -147 -81 -5 0 -22 -13 -38 -30 -15 -16 -37
-30 -48 -30 -12 0 -23 -7 -26 -15 -3 -8 -16 -17 -27 -21 -12 -4 -36 -17 -53
-30 -17 -13 -33 -24 -36 -24 -3 0 -29 -16 -58 -35 -29 -19 -61 -35 -71 -35
-10 0 -19 -4 -19 -9 0 -5 -14 -14 -30 -21 -17 -7 -36 -20 -43 -30 -7 -9 -25
-20 -40 -24 -16 -4 -50 -22 -77 -41 -28 -19 -54 -35 -59 -35 -5 0 -28 -18 -51
-40 -23 -22 -47 -40 -54 -40 -19 0 -89 -36 -113 -59 -12 -12 -26 -21 -31 -21
-4 0 -26 -13 -48 -29 -21 -16 -64 -43 -94 -59 l-55 -31 -1 -58 c-1 -32 -4
-263 -8 -513 -5 -399 -4 -453 9 -436 15 19 35 33 95 63 20 10 59 35 87 55 28
21 55 38 61 38 15 0 98 49 112 65 7 8 19 15 27 15 8 0 24 11 37 25 13 14 28
25 33 25 6 0 16 7 23 15 7 8 27 17 45 21 19 3 52 21 73 40 22 19 45 34 51 34
6 0 34 16 62 35 27 20 61 40 75 45 14 6 42 23 62 39 20 16 63 43 96 61 32 17
65 37 73 45 7 8 40 24 73 36 33 12 60 25 60 29 0 4 17 15 38 23 20 9 49 27 64
41 15 14 32 26 38 26 5 0 10 5 10 10 0 6 9 10 20 10 11 0 20 4 20 9 0 5 15 14
34 21 18 6 42 20 51 30 10 11 26 20 37 20 10 0 18 3 18 8 0 4 17 16 38 27 20
11 46 28 56 38 11 9 30 17 42 17 12 0 24 7 28 15 3 8 18 21 33 27 15 7 42 23
59 35 17 13 35 23 41 23 6 0 24 14 41 30 18 16 41 30 51 30 11 0 24 6 28 14 4
7 40 29 78 47 39 19 84 46 100 61 17 16 34 28 39 28 9 0 45 22 118 72 15 10
34 18 42 18 9 0 31 14 49 30 19 17 42 30 51 30 9 0 16 5 16 10 0 6 7 10 15 10
17 0 90 43 100 60 3 5 13 10 22 10 17 0 118 63 128 80 3 6 13 10 21 10 12 0
66 32 84 50 10 10 50 30 60 30 11 0 60 33 94 63 11 9 28 17 38 17 10 0 28 11
40 25 12 14 25 25 30 25 4 0 17 9 28 20 11 11 29 20 40 20 11 0 38 12 59 27
l40 28 1 1063 0 1062 -1030 0 -1030 0 0 650 0 650 1070 0 1070 0 0 440 0 440
-572 -2 c-315 -2 -970 -4 -1455 -5z"/>
<path d="M4173 6362 l-833 -2 0 -1485 0 -1485 843 0 c464 0 1000 -3 1190 -7
l347 -6 0 155 c0 85 -3 237 -7 336 l-6 182 -769 0 -768 0 0 245 0 245 775 0
775 0 -2 323 -3 322 -770 2 -770 3 -3 250 -2 250 775 0 775 0 0 340 0 340
-357 -3 c-197 -1 -733 -3 -1190 -5z"/>
<path d="M2150 4207 l0 -2133 41 -27 c22 -15 48 -27 57 -27 10 0 44 -20 77
-45 33 -25 64 -45 70 -45 5 0 35 -17 65 -38 30 -20 69 -44 85 -52 17 -8 32
-17 35 -20 17 -17 71 -50 82 -50 7 0 36 -17 63 -38 28 -21 71 -46 97 -55 25
-10 52 -25 58 -33 7 -7 19 -14 26 -14 8 0 14 -3 14 -8 0 -4 15 -13 33 -21 17
-8 46 -24 62 -37 17 -12 51 -31 77 -42 26 -11 62 -32 80 -45 18 -14 43 -28 56
-32 12 -3 37 -20 54 -36 18 -16 37 -29 43 -29 5 0 21 -9 35 -20 14 -11 31 -20
38 -20 6 0 21 -9 32 -20 11 -11 32 -23 47 -26 15 -4 41 -20 58 -35 16 -16 43
-34 60 -41 16 -6 32 -15 35 -19 3 -4 21 -14 40 -23 37 -16 80 -42 150 -91 51
-35 57 -39 90 -54 14 -7 43 -23 65 -36 22 -13 59 -33 82 -45 23 -11 54 -31 69
-45 15 -14 34 -25 43 -25 9 0 26 -10 37 -23 12 -12 46 -31 75 -41 30 -10 68
-31 84 -47 17 -15 42 -31 57 -34 14 -4 34 -15 44 -26 9 -10 22 -19 28 -19 6 0
28 -11 48 -25 20 -14 43 -25 51 -25 8 0 26 -11 42 -26 15 -14 51 -38 80 -55
29 -16 60 -38 70 -49 10 -11 27 -20 37 -20 20 0 98 -41 133 -70 11 -9 37 -25
59 -36 21 -10 40 -25 43 -31 3 -7 11 -13 19 -13 8 0 14 -4 14 -10 0 -5 7 -10
16 -10 9 0 47 -20 84 -45 37 -25 70 -45 74 -45 3 0 30 -16 61 -35 l55 -36 0
505 0 505 -24 13 c-13 7 -45 25 -72 39 -27 15 -58 36 -68 48 -11 12 -27 21
-36 21 -9 0 -25 9 -35 20 -17 19 -30 27 -107 67 -18 9 -48 29 -66 45 -18 15
-39 28 -46 28 -8 0 -19 7 -27 16 -13 16 -101 64 -118 64 -5 0 -24 13 -42 29
-18 17 -46 35 -63 42 -17 7 -51 26 -76 43 -25 17 -61 39 -80 49 -53 27 -78 42
-98 60 -10 10 -24 17 -31 17 -8 0 -29 13 -48 30 -18 16 -40 30 -48 30 -8 0
-15 5 -15 10 0 6 -8 10 -18 10 -16 0 -93 55 -100 72 -2 5 -10 8 -19 8 -8 0
-27 9 -41 21 -57 43 -104 69 -127 69 -14 0 -26 7 -30 19 -3 11 -22 27 -43 37
-42 19 -122 72 -137 90 -5 6 -27 17 -47 24 -21 6 -38 15 -38 20 0 4 -18 17
-39 28 -68 36 -84 46 -116 74 -16 16 -37 28 -45 28 -8 0 -26 9 -40 20 -14 11
-33 20 -42 20 -10 0 -18 5 -18 10 0 6 -7 10 -15 10 -8 0 -15 5 -15 10 0 6 -6
10 -14 10 -8 0 -21 6 -28 13 -14 14 -73 51 -123 78 l-30 16 -3 1907 -2 1906
-500 0 -500 0 0 -2133z"/>
<path d="M3385 3194 c56 -41 91 -71 105 -88 8 -10 28 -30 43 -45 16 -14 54
-51 85 -82 55 -53 60 -56 122 -62 36 -3 91 -15 122 -27 32 -11 68 -20 81 -20
13 0 55 -11 93 -24 57 -19 197 -46 157 -29 -9 3 -13 35 -13 109 l0 104 95 0
95 0 0 -103 c0 -91 -3 -107 -21 -128 l-21 -24 294 -3 c161 -1 631 -1 1044 0
575 2 747 0 735 -9 -11 -8 -16 -27 -16 -63 0 -46 4 -55 33 -81 38 -34 74 -37
120 -9 49 30 68 102 38 145 -13 19 -12 20 38 17 33 -2 72 4 111 18 33 12 78
25 100 29 22 4 69 17 105 28 90 30 182 52 268 66 59 10 78 17 96 38 13 15 33
32 45 38 11 7 21 16 21 22 0 13 15 28 58 58 17 12 32 29 32 37 0 8 3 14 8 14
4 0 30 20 57 45 l50 44 -2100 0 c-1869 0 -2098 -1 -2080 -15z m3420 -134 c3
-6 -1 -7 -9 -4 -18 7 -21 14 -7 14 6 0 13 -4 16 -10z m-140 -36 c-27 -40 -33
-92 -12 -114 10 -12 9 -12 -5 -1 -27 20 -23 78 8 118 34 44 40 42 9 -3z m50
-172 c-3 -3 -11 0 -18 7 -9 10 -8 11 6 5 10 -3 15 -9 12 -12z m80 8 c-3 -5
-12 -10 -18 -10 -7 0 -6 4 3 10 19 12 23 12 15 0z"/>
<path d="M6965 2799 c-26 -13 -75 -77 -75 -98 0 -27 38 -80 72 -101 29 -17 34
-18 67 -4 80 32 107 116 54 166 -50 46 -80 56 -118 37z"/>
<path d="M4201 2797 c2 -1 13 -9 24 -17 19 -14 19 -14 6 3 -7 9 -18 17 -24 17
-6 0 -8 -1 -6 -3z"/>
<path d="M4295 2760 c-3 -6 1 -7 9 -4 18 7 21 14 7 14 -6 0 -13 -4 -16 -10z"/>
<path d="M4478 2753 c28 -2 76 -2 105 0 28 2 5 3 -53 3 -58 0 -81 -1 -52 -3z"/>
<path d="M5140 2560 l0 -60 175 0 175 0 0 60 0 60 -175 0 -175 0 0 -60z"/>
<path d="M5570 2560 l0 -60 180 0 180 0 0 60 0 60 -180 0 -180 0 0 -60z"/>
</g>
</svg>
